<?xml version="1.0" encoding="UTF-8" standalone="no"?>
<!-- Created with Inkscape (http://www.inkscape.org/) -->

<svg
   width="512"
   height="512"
   viewBox="0 0 512 512"
   version="1.1"
   id="svg1"
   xml:space="preserve"
   sodipodi:docname="logo_export.svg"
   inkscape:version="1.4 (e7c3feb1, 2024-10-09)"
   xmlns:inkscape="http://www.inkscape.org/namespaces/inkscape"
   xmlns:sodipodi="http://sodipodi.sourceforge.net/DTD/sodipodi-0.dtd"
   xmlns:xlink="http://www.w3.org/1999/xlink"
   xmlns="http://www.w3.org/2000/svg"
   xmlns:svg="http://www.w3.org/2000/svg"><sodipodi:namedview
     id="namedview1"
     pagecolor="#ffffff"
     bordercolor="#000000"
     borderopacity="0.25"
     inkscape:showpageshadow="2"
     inkscape:pageopacity="0.0"
     inkscape:pagecheckerboard="0"
     inkscape:deskcolor="#d1d1d1"
     inkscape:zoom="0.8125"
     inkscape:cx="261.53846"
     inkscape:cy="273.23077"
     inkscape:window-width="1440"
     inkscape:window-height="847"
     inkscape:window-x="0"
     inkscape:window-y="25"
     inkscape:window-maximized="1"
     inkscape:current-layer="svg1" /><defs
     id="defs1"><linearGradient
       id="linearGradient7792"><stop
         style="stop-color:#b3b3b3;stop-opacity:1"
         offset="0"
         id="stop7787" /><stop
         style="stop-color:#a5a6a5;stop-opacity:1;"
         offset="1"
         id="stop7789" /></linearGradient><linearGradient
       id="linearGradient6272"><stop
         style="stop-color:#f76c1c;stop-opacity:1;"
         offset="0"
         id="stop6268" /><stop
         style="stop-color:#fad75f;stop-opacity:1;"
         offset="1"
         id="stop6270" /></linearGradient><linearGradient
       id="linearGradient1328"><stop
         style="stop-color:#f76c1c;stop-opacity:1;"
         offset="0"
         id="stop1324" /><stop
         style="stop-color:#fad75f;stop-opacity:1;"
         offset="1"
         id="stop1326" /></linearGradient><linearGradient
       id="swatch4214"><stop
         style="stop-color:#a5a6a5;stop-opacity:1;"
         offset="0"
         id="stop4214" /></linearGradient><linearGradient
       id="linearGradient4208"><stop
         style="stop-color:#fad75f;stop-opacity:1;"
         offset="0.67207313"
         id="stop4209" /><stop
         style="stop-color:#f76c1c;stop-opacity:1;"
         offset="1"
         id="stop4210" /></linearGradient><pattern
       xlink:href="#pattern6795"
       id="pattern52"
       patternTransform="translate(185,405)" /><pattern
       patternUnits="userSpaceOnUse"
       width="20"
       height="20"
       patternTransform="translate(185,405)"
       style="fill:#000000"
       id="pattern6795"><path
         id="rect6713"
         style="opacity:1;stroke-width:4.8561;stroke-linecap:square;paint-order:stroke markers fill;stop-color:#000000"
         d="M 10,10 H 20 L 15,20 H 5 Z M 5,0 H 15 L 10,10 H 0 Z" /></pattern><linearGradient
       id="linearGradient48"><stop
         style="stop-color:#f76d1d;stop-opacity:1;"
         offset="0"
         id="stop47" /><stop
         style="stop-color:#a6a5a5;stop-opacity:1;"
         offset="1"
         id="stop48" /></linearGradient><rect
       x="-33.117136"
       y="388.60005"
       width="40.334145"
       height="105.57395"
       id="rect41" /><rect
       x="244.83072"
       y="199.03086"
       width="-102.70936"
       height="181.02708"
       id="rect38" /><linearGradient
       id="linearGradient24"><stop
         style="stop-color:#f76d1d;stop-opacity:1;"
         offset="0"
         id="stop37" /><stop
         style="stop-color:#fad75f;stop-opacity:1;"
         offset="1"
         id="stop38" /></linearGradient><rect
       x="465.67534"
       y="484.92156"
       width="80.252421"
       height="203.58734"
       id="rect35" /><linearGradient
       id="linearGradient24-4"><stop
         style="stop-color:#f76c1c;stop-opacity:1;"
         offset="0"
         id="stop35" /><stop
         style="stop-color:#fad75f;stop-opacity:1;"
         offset="0.73355013"
         id="stop4204" /><stop
         style="stop-color:#f76f1e;stop-opacity:1;"
         offset="1"
         id="stop34" /></linearGradient><linearGradient
       id="linearGradient24-3"><stop
         style="stop-color:#f76f1e;stop-opacity:1;"
         offset="0"
         id="stop32" /><stop
         style="stop-color:#fad760;stop-opacity:1;"
         offset="1"
         id="stop33" /></linearGradient><linearGradient
       id="linearGradient24-2"><stop
         style="stop-color:#f76f1e;stop-opacity:1;"
         offset="0"
         id="stop30" /><stop
         style="stop-color:#fad75f;stop-opacity:1;"
         offset="1"
         id="stop31" /></linearGradient><linearGradient
       id="linearGradient24-1"><stop
         style="stop-color:#f76f1e;stop-opacity:1;"
         offset="0"
         id="stop28" /><stop
         style="stop-color:#fad760;stop-opacity:1;"
         offset="1"
         id="stop29" /></linearGradient><linearGradient
       id="linearGradient24-6"><stop
         style="stop-color:#f76f1e;stop-opacity:1;"
         offset="0"
         id="stop26" /><stop
         style="stop-color:#fad760;stop-opacity:1;"
         offset="1"
         id="stop27" /></linearGradient><linearGradient
       id="linearGradient24-5"><stop
         style="stop-color:#f76f1e;stop-opacity:1;"
         offset="0"
         id="stop24" /><stop
         style="stop-color:#fad760;stop-opacity:1;"
         offset="1"
         id="stop25" /></linearGradient><linearGradient
       id="swatch22"><stop
         style="stop-color:#fad75f;stop-opacity:1;"
         offset="1"
         id="stop22" /></linearGradient><linearGradient
       id="linearGradient14"><stop
         style="stop-color:#000000;stop-opacity:1;"
         offset="0"
         id="stop15" /><stop
         style="stop-color:#000000;stop-opacity:0;"
         offset="1"
         id="stop16" /></linearGradient><linearGradient
       id="linearGradient1"><stop
         style="stop-color:#f76d1d;stop-opacity:1;"
         offset="0"
         id="stop1" /><stop
         style="stop-color:#fad75f;stop-opacity:1;"
         offset="1"
         id="stop2" /></linearGradient><linearGradient
       id="linearGradient4"><stop
         style="stop-color:#f76c1c;stop-opacity:1;"
         offset="0"
         id="stop5" /><stop
         style="stop-color:#fad860;stop-opacity:1;"
         offset="1"
         id="stop6" /></linearGradient><linearGradient
       id="swatch4"><stop
         style="stop-color:#000000;stop-opacity:1;"
         offset="0"
         id="stop4" /></linearGradient><linearGradient
       xlink:href="#linearGradient4"
       id="linearGradient6"
       x1="2.4915359"
       y1="256.3046"
       x2="510.49388"
       y2="256.3046"
       gradientUnits="userSpaceOnUse"
       gradientTransform="matrix(1.0002071,0,0,1.0002071,-512.54583,-0.3577)" /><linearGradient
       id="swatch12"><stop
         style="stop-color:#800000;stop-opacity:1;"
         offset="0"
         id="stop12" /></linearGradient><radialGradient
       xlink:href="#linearGradient1"
       id="radialGradient1"
       cx="14.453012"
       cy="14.446013"
       fx="14.453012"
       fy="14.446013"
       r="10.926384"
       gradientTransform="matrix(1,0,0,0.80179854,0,2.863221)"
       gradientUnits="userSpaceOnUse" /><radialGradient
       xlink:href="#linearGradient1"
       id="radialGradient4"
       cx="14.453012"
       cy="14.446013"
       fx="14.453012"
       fy="14.446013"
       r="10.926384"
       gradientTransform="matrix(1,0,0,0.80179854,0,2.863221)"
       gradientUnits="userSpaceOnUse" /><radialGradient
       xlink:href="#linearGradient1"
       id="radialGradient6"
       cx="14.453012"
       cy="14.446013"
       fx="14.453012"
       fy="14.446013"
       r="10.926384"
       gradientTransform="matrix(1,0,0,0.80179854,0,2.863221)"
       gradientUnits="userSpaceOnUse" /><radialGradient
       xlink:href="#linearGradient1"
       id="radialGradient8"
       cx="14.453012"
       cy="14.446013"
       fx="14.453012"
       fy="14.446013"
       r="10.926384"
       gradientTransform="matrix(1,0,0,0.80179854,0,2.863221)"
       gradientUnits="userSpaceOnUse" /><radialGradient
       xlink:href="#linearGradient1"
       id="radialGradient1-3"
       cx="14.453012"
       cy="14.446013"
       fx="14.453012"
       fy="14.446013"
       r="10.926384"
       gradientTransform="matrix(1,0,0,0.80179854,0,2.863221)"
       gradientUnits="userSpaceOnUse" /><radialGradient
       xlink:href="#linearGradient1"
       id="radialGradient4-8"
       cx="14.453012"
       cy="14.446013"
       fx="14.453012"
       fy="14.446013"
       r="10.926384"
       gradientTransform="matrix(1,0,0,0.80179854,0,2.863221)"
       gradientUnits="userSpaceOnUse" /><radialGradient
       xlink:href="#linearGradient1"
       id="radialGradient6-7"
       cx="14.453012"
       cy="14.446013"
       fx="14.453012"
       fy="14.446013"
       r="10.926384"
       gradientTransform="matrix(1,0,0,0.80179854,0,2.863221)"
       gradientUnits="userSpaceOnUse" /><radialGradient
       xlink:href="#linearGradient1"
       id="radialGradient8-8"
       cx="14.453012"
       cy="14.446013"
       fx="14.453012"
       fy="14.446013"
       r="10.926384"
       gradientTransform="matrix(1,0,0,0.80179854,0,2.863221)"
       gradientUnits="userSpaceOnUse" /><radialGradient
       xlink:href="#linearGradient14"
       id="radialGradient16"
       cx="56.758743"
       cy="-61.861652"
       fx="56.758743"
       fy="-61.861652"
       r="110.24126"
       gradientTransform="matrix(0.97995632,0,0,0.97904144,0.74423531,1.2549936)"
       gradientUnits="userSpaceOnUse" /><radialGradient
       xlink:href="#linearGradient1"
       id="radialGradient23"
       cx="6.1914477"
       cy="16.3085"
       fx="6.1914477"
       fy="16.3085"
       r="6.9082031"
       gradientTransform="matrix(-3.0164049,2.9389804,-2.8097876,-2.8838078,76.556904,29.741028)"
       gradientUnits="userSpaceOnUse" /><radialGradient
       xlink:href="#linearGradient4208"
       id="radialGradient4210"
       cx="-56.45306"
       cy="-117.76209"
       fx="-56.45306"
       fy="-117.76209"
       r="110.09342"
       gradientTransform="matrix(-0.72851585,0.68493516,-0.71011614,-0.75509223,-181.20477,-112.5985)"
       gradientUnits="userSpaceOnUse" /><clipPath
       clipPathUnits="userSpaceOnUse"
       id="clipPath2"><rect
         style="opacity:0.5;fill:#4d4d4d;stroke:#000000;stroke-width:0"
         id="rect3"
         width="93.800148"
         height="78.608162"
         x="1027.4956"
         y="371.19702" /></clipPath><clipPath
       clipPathUnits="userSpaceOnUse"
       id="clipPath2-6"><rect
         style="opacity:0.5;fill:#4d4d4d;stroke:#000000;stroke-width:0"
         id="rect3-4"
         width="93.800148"
         height="78.608162"
         x="1027.4956"
         y="371.19702" /></clipPath><clipPath
       clipPathUnits="userSpaceOnUse"
       id="clipPath2-5"><rect
         style="opacity:0.5;fill:#4d4d4d;stroke:#000000;stroke-width:0"
         id="rect3-6"
         width="93.800148"
         height="78.608162"
         x="1027.4956"
         y="371.19702" /></clipPath><clipPath
       clipPathUnits="userSpaceOnUse"
       id="clipPath2-62"><rect
         style="opacity:0.5;fill:#4d4d4d;stroke:#000000;stroke-width:0"
         id="rect3-9"
         width="93.800148"
         height="78.608162"
         x="1027.4956"
         y="371.19702" /></clipPath><radialGradient
       xlink:href="#linearGradient1328"
       id="radialGradient1330"
       cx="94.500011"
       cy="127.91251"
       fx="94.500011"
       fy="127.91251"
       r="48.499988"
       gradientTransform="matrix(1,0,0,0.78530978,0,27.461565)"
       gradientUnits="userSpaceOnUse" /><radialGradient
       xlink:href="#linearGradient1328"
       id="radialGradient1330-3"
       cx="94.500008"
       cy="127.91251"
       fx="94.500008"
       fy="127.91251"
       r="48.499989"
       gradientTransform="matrix(1,0,0,0.78530978,0,27.461565)"
       gradientUnits="userSpaceOnUse" /><radialGradient
       xlink:href="#linearGradient1328"
       id="radialGradient4167"
       cx="94.500008"
       cy="127.91251"
       fx="94.500008"
       fy="127.91251"
       r="48.499989"
       gradientTransform="matrix(1,0,0,0.78530978,0,27.461565)"
       gradientUnits="userSpaceOnUse" /><clipPath
       clipPathUnits="userSpaceOnUse"
       id="clipPath2-62-6"><rect
         style="opacity:0.5;fill:#4d4d4d;stroke:#000000;stroke-width:0"
         id="rect3-9-2"
         width="93.800148"
         height="78.608162"
         x="1027.4956"
         y="371.19702" /></clipPath><radialGradient
       xlink:href="#linearGradient1328"
       id="radialGradient4177"
       cx="94.500008"
       cy="127.91251"
       fx="94.500008"
       fy="127.91251"
       r="48.499989"
       gradientTransform="matrix(1,0,0,0.78530978,0,27.461565)"
       gradientUnits="userSpaceOnUse" /><radialGradient
       xlink:href="#linearGradient1328"
       id="radialGradient4185"
       cx="94.500008"
       cy="127.91251"
       fx="94.500008"
       fy="127.91251"
       r="48.499989"
       gradientTransform="matrix(1,0,0,0.78530978,0,27.461565)"
       gradientUnits="userSpaceOnUse" /><radialGradient
       xlink:href="#linearGradient1328"
       id="radialGradient4193"
       cx="94.500008"
       cy="127.91251"
       fx="94.500008"
       fy="127.91251"
       r="48.499989"
       gradientTransform="matrix(1,0,0,0.78530978,0,27.461565)"
       gradientUnits="userSpaceOnUse" /><radialGradient
       xlink:href="#linearGradient1328"
       id="radialGradient4201"
       cx="94.500008"
       cy="127.91251"
       fx="94.500008"
       fy="127.91251"
       r="48.499989"
       gradientTransform="matrix(1,0,0,0.78530978,0,27.461565)"
       gradientUnits="userSpaceOnUse" /><radialGradient
       xlink:href="#linearGradient1328"
       id="radialGradient4209"
       cx="94.500008"
       cy="127.91251"
       fx="94.500008"
       fy="127.91251"
       r="48.499989"
       gradientTransform="matrix(1,0,0,0.78530978,0,27.461565)"
       gradientUnits="userSpaceOnUse" /><radialGradient
       xlink:href="#linearGradient1328"
       id="radialGradient4217-1"
       cx="94.500008"
       cy="127.91251"
       fx="94.500008"
       fy="127.91251"
       r="48.499989"
       gradientTransform="matrix(1,0,0,0.78530978,0,27.461565)"
       gradientUnits="userSpaceOnUse" /><radialGradient
       xlink:href="#linearGradient1328"
       id="radialGradient4225"
       cx="94.500008"
       cy="127.91251"
       fx="94.500008"
       fy="127.91251"
       r="48.499989"
       gradientTransform="matrix(1,0,0,0.78530978,0,27.461565)"
       gradientUnits="userSpaceOnUse" /><radialGradient
       xlink:href="#linearGradient1328"
       id="radialGradient4233"
       cx="94.500008"
       cy="127.91251"
       fx="94.500008"
       fy="127.91251"
       r="48.499989"
       gradientTransform="matrix(1,0,0,0.78530978,0,27.461565)"
       gradientUnits="userSpaceOnUse" /><radialGradient
       xlink:href="#linearGradient1328"
       id="radialGradient4241"
       cx="94.500008"
       cy="127.91251"
       fx="94.500008"
       fy="127.91251"
       r="48.499989"
       gradientTransform="matrix(1,0,0,0.78530978,0,27.461565)"
       gradientUnits="userSpaceOnUse" /><radialGradient
       xlink:href="#linearGradient1328"
       id="radialGradient4249"
       cx="94.500008"
       cy="127.91251"
       fx="94.500008"
       fy="127.91251"
       r="48.499989"
       gradientTransform="matrix(1,0,0,0.78530978,0,27.461565)"
       gradientUnits="userSpaceOnUse" /><radialGradient
       xlink:href="#linearGradient1328"
       id="radialGradient4257"
       cx="94.500008"
       cy="127.91251"
       fx="94.500008"
       fy="127.91251"
       r="48.499989"
       gradientTransform="matrix(1,0,0,0.78530978,0,27.461565)"
       gradientUnits="userSpaceOnUse" /><radialGradient
       xlink:href="#linearGradient1328"
       id="radialGradient4265"
       cx="94.500008"
       cy="127.91251"
       fx="94.500008"
       fy="127.91251"
       r="48.499989"
       gradientTransform="matrix(1,0,0,0.78530978,0,27.461565)"
       gradientUnits="userSpaceOnUse" /><radialGradient
       xlink:href="#linearGradient1328"
       id="radialGradient4273"
       cx="94.500008"
       cy="127.91251"
       fx="94.500008"
       fy="127.91251"
       r="48.499989"
       gradientTransform="matrix(1,0,0,0.78530978,0,27.461565)"
       gradientUnits="userSpaceOnUse" /><radialGradient
       xlink:href="#linearGradient1328"
       id="radialGradient4281"
       cx="94.500008"
       cy="127.91251"
       fx="94.500008"
       fy="127.91251"
       r="48.499989"
       gradientTransform="matrix(1,0,0,0.78530978,0,27.461565)"
       gradientUnits="userSpaceOnUse" /><radialGradient
       xlink:href="#linearGradient1328"
       id="radialGradient4289"
       cx="94.500008"
       cy="127.91251"
       fx="94.500008"
       fy="127.91251"
       r="48.499989"
       gradientTransform="matrix(1,0,0,0.78530978,0,27.461565)"
       gradientUnits="userSpaceOnUse" /><radialGradient
       xlink:href="#linearGradient1328"
       id="radialGradient4317"
       gradientUnits="userSpaceOnUse"
       gradientTransform="matrix(1,0,0,0.78530978,0,27.461565)"
       cx="94.500008"
       cy="127.91251"
       fx="94.500008"
       fy="127.91251"
       r="48.499989" /><radialGradient
       xlink:href="#linearGradient1328"
       id="radialGradient4319"
       gradientUnits="userSpaceOnUse"
       gradientTransform="matrix(1,0,0,0.78530978,0,27.461565)"
       cx="94.500008"
       cy="127.91251"
       fx="94.500008"
       fy="127.91251"
       r="48.499989" /><radialGradient
       xlink:href="#linearGradient1328"
       id="radialGradient4321"
       gradientUnits="userSpaceOnUse"
       gradientTransform="matrix(1,0,0,0.78530978,0,27.461565)"
       cx="94.500008"
       cy="127.91251"
       fx="94.500008"
       fy="127.91251"
       r="48.499989" /><radialGradient
       xlink:href="#linearGradient1328"
       id="radialGradient4323"
       gradientUnits="userSpaceOnUse"
       gradientTransform="matrix(1,0,0,0.78530978,0,27.461565)"
       cx="94.500008"
       cy="127.91251"
       fx="94.500008"
       fy="127.91251"
       r="48.499989" /><radialGradient
       xlink:href="#linearGradient1328"
       id="radialGradient4325"
       gradientUnits="userSpaceOnUse"
       gradientTransform="matrix(1,0,0,0.78530978,0,27.461565)"
       cx="94.500008"
       cy="127.91251"
       fx="94.500008"
       fy="127.91251"
       r="48.499989" /><radialGradient
       xlink:href="#linearGradient1328"
       id="radialGradient4327"
       gradientUnits="userSpaceOnUse"
       gradientTransform="matrix(1,0,0,0.78530978,0,27.461565)"
       cx="94.500008"
       cy="127.91251"
       fx="94.500008"
       fy="127.91251"
       r="48.499989" /><radialGradient
       xlink:href="#linearGradient1328"
       id="radialGradient4329"
       gradientUnits="userSpaceOnUse"
       gradientTransform="matrix(1,0,0,0.78530978,0,27.461565)"
       cx="94.500008"
       cy="127.91251"
       fx="94.500008"
       fy="127.91251"
       r="48.499989" /><radialGradient
       xlink:href="#linearGradient1328"
       id="radialGradient4331"
       gradientUnits="userSpaceOnUse"
       gradientTransform="matrix(1,0,0,0.78530978,0,27.461565)"
       cx="94.500008"
       cy="127.91251"
       fx="94.500008"
       fy="127.91251"
       r="48.499989" /><radialGradient
       xlink:href="#linearGradient1328"
       id="radialGradient4333"
       gradientUnits="userSpaceOnUse"
       gradientTransform="matrix(1,0,0,0.78530978,0,27.461565)"
       cx="94.500008"
       cy="127.91251"
       fx="94.500008"
       fy="127.91251"
       r="48.499989" /><radialGradient
       xlink:href="#linearGradient1328"
       id="radialGradient4335"
       gradientUnits="userSpaceOnUse"
       gradientTransform="matrix(1,0,0,0.78530978,0,27.461565)"
       cx="94.500008"
       cy="127.91251"
       fx="94.500008"
       fy="127.91251"
       r="48.499989" /><radialGradient
       xlink:href="#linearGradient1328"
       id="radialGradient4337"
       gradientUnits="userSpaceOnUse"
       gradientTransform="matrix(1,0,0,0.78530978,0,27.461565)"
       cx="94.500008"
       cy="127.91251"
       fx="94.500008"
       fy="127.91251"
       r="48.499989" /><radialGradient
       xlink:href="#linearGradient1328"
       id="radialGradient4339"
       gradientUnits="userSpaceOnUse"
       gradientTransform="matrix(1,0,0,0.78530978,0,27.461565)"
       cx="94.500008"
       cy="127.91251"
       fx="94.500008"
       fy="127.91251"
       r="48.499989" /><radialGradient
       xlink:href="#linearGradient1328"
       id="radialGradient4341"
       gradientUnits="userSpaceOnUse"
       gradientTransform="matrix(1,0,0,0.78530978,0,27.461565)"
       cx="94.500008"
       cy="127.91251"
       fx="94.500008"
       fy="127.91251"
       r="48.499989" /><radialGradient
       xlink:href="#linearGradient1328"
       id="radialGradient4343"
       gradientUnits="userSpaceOnUse"
       gradientTransform="matrix(1,0,0,0.78530978,0,27.461565)"
       cx="94.500008"
       cy="127.91251"
       fx="94.500008"
       fy="127.91251"
       r="48.499989" /><linearGradient
       xlink:href="#linearGradient6272"
       id="linearGradient6266"
       x1="277.70972"
       y1="120.02622"
       x2="277.70972"
       y2="325.02621"
       gradientUnits="userSpaceOnUse" /><radialGradient
       xlink:href="#linearGradient7792"
       id="radialGradient8298"
       cx="242.70973"
       cy="277.37057"
       fx="242.70973"
       fy="277.37057"
       r="150.44186"
       gradientTransform="matrix(1,0,0,0.76945731,0,51.601401)"
       gradientUnits="userSpaceOnUse" /></defs><g
     id="layer7"><g
       id="layer1"
       style="display:inline"><path
         id="rect606"
         style="font-variation-settings:'wght' 800;display:none;stroke:#000000;stroke-width:6.69669;stop-color:#000000"
         d="M 0.34834695,0.34834695 H 508.65166 V 508.65166 H 0.34834695 Z" /><path
         id="path4"
         style="display:inline;fill-opacity:0;stroke:url(#linearGradient6);stroke-width:7.5458"
         transform="rotate(-90)"
         d="M -5.2729034,256 A 250.7271,250.7271 0 0 1 -256,506.7271 250.7271,250.7271 0 0 1 -506.7271,256 250.7271,250.7271 0 0 1 -256,5.2729034 250.7271,250.7271 0 0 1 -5.2729034,256 Z" /><path
         id="path4-9"
         style="display:inline;fill:none;fill-opacity:0.189919;stroke:#a5a6a5;stroke-width:14.1732"
         d="M 483.63089,256 A 227.63089,227.63086 0 0 1 256,483.63086 227.63089,227.63086 0 0 1 28.36911,256 227.63089,227.63086 0 0 1 256,28.369141 227.63089,227.63086 0 0 1 483.63089,256 Z" /><path
         id="circle28"
         style="display:inline;stroke-width:0"
         d="M 474.02873,256 A 218.02873,218.02873 0 0 1 256,474.02873 218.02873,218.02873 0 0 1 37.971268,256 218.02873,218.02873 0 0 1 256,37.971268 218.02873,218.02873 0 0 1 474.02873,256 Z" /><g
         id="g2"
         style="display:inline"
         transform="matrix(1.9389382,0,0,1.9392037,364.36291,371.01403)"><g
           aria-label="ACTIVELY NESTING EXPATS"
           transform="translate(0.92979773)"
           id="text5"
           style="font-size:26.1294px;font-family:Roboto;-inkscape-font-specification:'Roboto, @wght=800';font-variation-settings:'wght' 800;display:inline;fill:url(#radialGradient4210);stroke-width:0"><path
             d="m -148.86476,-52.259936 -15.21575,-2.516356 -0.34599,-4.311261 18.97915,4.275054 0.21535,2.68341 z m -14.68299,4.122224 14.61869,-4.923432 3.56029,-0.772101 0.21944,2.734281 -18.05243,7.272513 z m 6.91688,-0.4143 -3.26842,0.262298 -0.6583,-8.202843 3.26842,-0.262297 z"
             style="font-size:26.1294px"
             id="path909" /><path
             d="m -154.55788,-33.515298 0.95494,3.916954 q -2.04192,0.458412 -3.64236,0.0344 -1.60044,-0.424015 -2.67627,-1.658799 -1.06343,-1.237805 -1.53486,-3.171491 -0.37472,-1.537033 -0.14422,-2.853915 0.2429,-1.319904 1.04446,-2.395174 0.80458,-1.062875 2.1645,-1.840909 1.36293,-0.765638 3.24704,-1.224973 l 2.80136,-0.682958 q 1.87171,-0.456313 3.45555,-0.369689 1.58385,0.08662 2.78733,0.659945 1.21889,0.582694 2.02961,1.645733 0.81071,1.063039 1.17032,2.538094 0.49258,2.020454 0.0719,3.580685 -0.42068,1.56023 -1.67724,2.6545 -1.25655,1.094271 -3.27762,1.692055 l -0.95795,-3.929349 q 1.24256,-0.289799 1.87929,-0.694541 0.65214,-0.395368 0.80729,-0.997876 0.16755,-0.60553 -0.0561,-1.522791 -0.16017,-0.656957 -0.52291,-1.067545 -0.35035,-0.413609 -0.96525,-0.565738 -0.6149,-0.152129 -1.54061,-0.0709 -0.92572,0.08123 -2.21484,0.395512 l -2.82616,0.689002 q -1.28912,0.314282 -2.15439,0.643421 -0.85288,0.326116 -1.34419,0.734803 -0.47892,0.405664 -0.61199,0.937129 -0.13308,0.531465 0.0452,1.262795 0.19945,0.818098 0.5773,1.290662 0.39025,0.469543 1.12306,0.566662 0.73583,0.109514 1.98777,-0.195702 z"
             style="font-size:26.1294px"
             id="path911" /><path
             d="m -138.36833,-24.28778 -17.15246,7.132567 -1.5529,-3.734429 17.15245,-7.132567 z m 1.74885,4.20565 -3.03938,1.263875 -5.01141,-12.051485 3.03937,-1.263875 z"
             style="font-size:26.1294px"
             id="path913" /><path
             d="m -133.56288,-14.698764 -16.24269,9.0141872 -1.96256,-3.5363531 16.24268,-9.0141871 z"
             style="font-size:26.1294px"
             id="path915" /><path
             d="m -141.30379,-0.12189767 13.55963,-5.78866183 2.59599,3.6176572 -18.15718,6.5595541 -1.71082,-2.3841294 z m 10.11567,-10.58801833 -9.82557,10.99228376 -3.07269,2.89587714 -1.7257,-2.40486097 12.04285,-15.08022493 z"
             style="font-size:26.1294px"
             id="path917" /><path
             d="m -128.03657,16.750506 -2.35494,2.281579 -5.63737,-5.818638 2.35495,-2.281579 z m 6.28149,-15.5009077 -13.34164,12.9259857 -2.82312,-2.913901 13.34164,-12.9259854 z m -1.39185,9.2713897 -2.27247,2.201679 -4.89164,-5.0489282 2.27248,-2.2016789 z m 6.09705,-4.4148886 -2.36411,2.2904562 -5.63736,-5.8186381 2.36411,-2.29045624 z"
             style="font-size:26.1294px"
             id="path919" /><path
             d="m -117.32195,25.684228 -2.07267,2.540747 -6.02068,-4.911507 2.07267,-2.540747 z m 4.68715,-15.91822 -11.74245,14.394271 -3.1438,-2.564629 11.74245,-14.3942715 z"
             style="font-size:26.1294px"
             id="path921" /><path
             d="m -106.69912,14.290449 -2.15489,8.345107 6.5667,-5.58237 3.708947,2.322596 -10.471337,7.442564 -3.56176,5.687774 -3.47106,-2.173624 3.56177,-5.687774 2.12349,-12.670097 z"
             style="font-size:26.1294px"
             id="path923" /><path
             d="m -80.851477,26.513084 -6.146974,17.529831 -3.744353,-1.312987 -1.135393,-12.647377 -3.824972,10.907986 -3.732312,-1.308765 6.146974,-17.529832 3.744353,1.312987 1.126323,12.711798 3.846081,-10.968185 z"
             style="font-size:26.1294px"
             id="path925" /><path
             d="m -70.715601,44.176369 -0.596468,3.224219 -7.966457,-1.473763 0.596468,-3.22422 z m -3.866425,-16.272247 -3.379212,18.266396 -3.989501,-0.738042 3.379212,-18.266396 z m 4.23994,8.361747 -0.57558,3.111309 -6.912626,-1.278809 0.57558,-3.111309 z m 2.409229,-7.131676 -0.598789,3.236765 -7.966457,-1.473764 0.598789,-3.236765 z"
             style="font-size:26.1294px"
             id="path927" /><path
             d="m -59.468267,43.36486 q 0.01902,-0.471681 -0.05532,-0.844974 -0.07382,-0.386041 -0.315932,-0.715023 -0.241599,-0.34173 -0.738161,-0.693739 -0.496562,-0.352009 -1.310799,-0.742363 -1.002889,-0.461804 -1.951702,-0.99804 -0.935551,-0.548471 -1.673713,-1.24221 -0.737647,-0.706487 -1.160089,-1.630106 -0.421928,-0.936366 -0.372589,-2.160186 0.0478,-1.185574 0.532527,-2.123695 0.485245,-0.950869 1.315615,-1.59414 0.830885,-0.65602 1.941614,-0.968767 1.111242,-0.325496 2.424298,-0.272559 1.771989,0.07144 3.068498,0.851532 1.297023,0.767345 1.983991,2.097462 0.687482,1.317369 0.618098,3.038365 l -4.028405,-0.162408 q 0.03032,-0.752139 -0.151033,-1.321279 -0.180842,-0.581889 -0.601429,-0.918066 -0.407325,-0.348411 -1.095724,-0.376165 -0.637405,-0.0257 -1.068886,0.225053 -0.431481,0.25075 -0.653953,0.701459 -0.222472,0.450709 -0.245086,1.011627 -0.01799,0.446184 0.172105,0.798606 0.202842,0.352936 0.547968,0.660534 0.357875,0.308111 0.844258,0.595865 0.499132,0.288269 1.07578,0.554125 1.229272,0.547543 2.174487,1.173017 0.957963,0.625987 1.578308,1.391589 0.633607,0.753368 0.92754,1.697343 0.307195,0.931742 0.259911,2.104568 -0.04831,1.198323 -0.495311,2.150734 -0.446486,0.939662 -1.238612,1.584476 -0.779378,0.645327 -1.877359,0.958588 -1.09798,0.313262 -2.436532,0.259297 -1.262064,-0.05088 -2.4205,-0.455111 -1.157922,-0.416979 -2.045464,-1.206122 -0.874793,-0.78863 -1.362931,-1.983042 -0.488137,-1.194413 -0.422866,-2.813424 l 4.053901,0.163436 q -0.03341,0.828628 0.08318,1.420695 0.12985,0.579832 0.421928,0.936366 0.304827,0.357048 0.757077,0.541276 0.465513,0.171993 1.115667,0.198205 0.662902,0.02673 1.056139,-0.225567 0.393236,-0.252292 0.563688,-0.679561 0.183714,-0.439502 0.205813,-0.987671 z"
             style="font-size:26.1294px"
             id="path929" /><path
             d="m -45.576509,29.101867 2.021239,18.466047 -4.020424,0.440063 -2.021239,-18.466046 z m 4.527733,-0.495592 0.358159,3.272143 -12.974427,1.420142 -0.358159,-3.272143 z"
             style="font-size:26.1294px"
             id="path931" /><path
             d="m -35.011602,27.191458 4.07253,18.124425 -3.946045,0.88667 -4.07253,-18.124425 z"
             style="font-size:26.1294px"
             id="path933" /><path
             d="m -21.273841,22.758286 6.252578,17.492442 -3.736366,1.335544 -8.840469,-9.115447 3.890684,10.88472 -3.724352,1.33125 -6.252579,-17.492442 3.736367,-1.335544 8.873954,9.171222 -3.912155,-10.94479 z"
             style="font-size:26.1294px"
             id="path935" /><path
             d="m -3.7912887,23.353071 3.78220305,6.728743 q -0.1495985,0.567073 -0.57520826,1.450285 -0.41448788,0.876961 -1.29813109,1.856638 -0.8725214,0.973425 -2.3850984,1.823639 -1.3679925,0.768944 -2.7177414,0.97147 -1.338627,0.196274 -2.6096524,-0.21625 -1.2661548,-0.429897 -2.4202218,-1.493598 -1.142944,-1.069953 -2.149447,-2.860577 l -1.525385,-2.713741 q -0.994,-1.768381 -1.320176,-3.312072 -0.326176,-1.543692 -0.04639,-2.842558 0.279788,-1.298866 1.098808,-2.315397 0.819019,-1.016532 2.142524,-1.760469 1.8796,-1.056516 3.448226,-1.10399 1.5686253,-0.04747 2.861751,0.820975 1.2931256,0.868449 2.3587278,2.581947 l -3.3921765,1.90673 q -0.61687,-0.941216 -1.1803819,-1.370898 -0.5523904,-0.435933 -1.1348004,-0.430552 -0.571288,-8.7e-4 -1.260845,0.386727 -0.578339,0.325082 -0.898183,0.797583 -0.314974,0.455128 -0.340195,1.113283 -0.02035,0.640782 0.278926,1.511707 0.293025,0.859803 0.930686,1.994236 l 1.537887,2.735985 q 0.6376611,1.134432 1.2261075,1.842816 0.5933167,0.69101 1.179799,1.005329 0.5913525,0.296946 1.2168691,0.238063 0.6303869,-0.07626 1.3310659,-0.470106 0.511607,-0.287572 0.7605041,-0.573835 0.2600191,-0.292515 0.3789426,-0.549628 0.1300455,-0.263364 0.2211284,-0.387741 l -1.5816485,-2.813838 -2.124281,1.194051 -1.4441139,-2.569157 z"
             style="font-size:26.1294px"
             id="path937" /><path
             d="m 16.375641,15.729874 2.168663,2.459323 -6.076536,5.358369 -2.168663,-2.459323 z M 1.1862735,8.7285644 13.472549,22.661536 10.429496,25.34494 -1.8567795,11.411968 Z m 9.1959415,1.8249836 2.092717,2.373199 -5.2727112,4.649545 -2.0927173,-2.373198 z M 6.2580284,4.256225 8.4351295,6.7251171 2.3585929,12.083486 0.18149185,9.6145939 Z"
             style="font-size:26.1294px"
             id="path939" /><path
             d="m 9.5493205,0.73959893 6.2521135,2.17604067 -3.22267,-5.7463292 2.938644,-3.4632771 4.215794,9.2494739 10.006402,2.7011485 -3.012934,3.5508319 -6.341142,-2.2683151 3.26217,5.8969735 -2.988171,3.521647 L 16.369152,6.8609792 6.5611495,4.2612459 Z"
             style="font-size:26.1294px"
             id="path941" /><path
             d="m 29.87411,-6.1679208 -1.993879,3.1922178 -2.791838,-1.7437997 1.993879,-3.1922179 q 0.385258,-0.6168014 0.340472,-1.1712708 -0.05561,-0.5612284 -0.445234,-1.0452756 -0.400448,-0.490806 -1.038891,-0.889582 -0.670907,-0.419053 -1.352567,-0.604138 -0.68166,-0.185085 -1.264496,-0.02263 -0.582836,0.162453 -0.968095,0.779254 l -1.250399,2.0018995 12.963651,8.09717857 -2.149334,3.44110263 -15.755489,-9.8409783 3.399734,-5.4430024 q 1.007078,-1.61234 2.412009,-2.344384 1.411691,-0.742865 2.994026,-0.627007 1.582336,0.115858 3.118929,1.075624 1.525772,0.953007 2.259147,2.283556 0.733375,1.33055 0.631035,2.8912433 -0.09558,1.5498723 -1.10266,3.1622129 z"
             style="font-size:26.1294px"
             id="path943" /><path
             d="m 28.680884,-22.242138 12.197992,9.437159 -1.741866,3.9588617 -14.675625,-12.7714507 1.08417,-2.46407 z m 14.880158,3.341213 -15.203868,-2.605495 -3.500144,-1.010358 1.104724,-2.510783 19.341155,2.167775 z m -6.284664,-2.918528 3.001261,1.32053 -3.314171,7.532347 -3.001261,-1.32053 z"
             style="font-size:26.1294px"
             id="path945" /><path
             d="m 30.002565,-37.10143 17.935258,4.838055 -1.05334,3.904861 -17.935259,-4.838055 z m 1.186253,-4.397587 3.178089,0.857293 -3.399265,12.60149 -3.178089,-0.857293 z"
             style="font-size:26.1294px"
             id="path947" /><path
             d="m 45.921228,-48.761201 q -0.469077,-0.05302 -0.846762,-0.0058 -0.390363,0.04576 -0.735963,0.263494 -0.358278,0.216302 -0.745213,0.686159 -0.386935,0.469857 -0.835045,1.253793 -0.532992,0.966938 -1.136319,1.874568 -0.614572,0.893519 -1.359785,1.579678 -0.757891,0.684726 -1.709594,1.039395 -0.96438,0.353237 -2.181445,0.215686 -1.179032,-0.133253 -2.079716,-0.684436 -0.913361,-0.552616 -1.495014,-1.427255 -0.594332,-0.876071 -0.826087,-2.006477 -0.244432,-1.13184 -0.09685,-2.437649 0.199162,-1.762209 1.070808,-2.999026 0.858968,-1.238249 2.235203,-1.827411 1.363558,-0.590596 3.075056,-0.397165 l -0.452772,4.006173 q -0.747988,-0.08454 -1.328735,0.05526 -0.593424,0.138367 -0.959084,0.53359 -0.376905,0.381113 -0.454277,1.065712 -0.07164,0.633888 0.147309,1.082344 0.218949,0.448455 0.652424,0.702881 0.433474,0.254426 0.991296,0.31747 0.443721,0.05015 0.808946,-0.11401 0.366658,-0.176835 0.698365,-0.498858 0.33314,-0.3347 0.655253,-0.799043 0.323546,-0.477022 0.630334,-1.032975 0.634849,-1.186541 1.32692,-2.084141 0.693505,-0.910278 1.501889,-1.47374 0.797139,-0.577573 1.759869,-0.802599 0.951485,-0.239136 2.117839,-0.107317 1.19171,0.134685 2.109369,0.649268 0.904982,0.51315 1.490934,1.349755 0.587385,0.823928 0.820573,1.941657 0.233187,1.117729 0.08274,2.448894 -0.141849,1.255098 -0.628646,2.381333 -0.499475,1.124802 -1.350626,1.953065 -0.849718,0.815585 -2.076251,1.216231 -1.226532,0.400646 -2.836608,0.218678 l 0.455637,-4.031528 q 0.824054,0.09313 1.422993,0.01959 0.587693,-0.08766 0.96438,-0.353237 0.37812,-0.278258 0.594513,-0.71603 0.205147,-0.451884 0.278221,-1.09845 0.07451,-0.659243 -0.148742,-1.069665 -0.223248,-0.410422 -0.637098,-0.611272 -0.425095,-0.214959 -0.970239,-0.27657 z"
             style="font-size:26.1294px"
             id="path949" /></g><path
           id="path5"
           style="display:none;fill:url(#radialGradient16);stroke:#000000;stroke-width:0.607822"
           transform="scale(-1,1)"
           d="M 164.09303,-59.310139 A 107.72771,107.62685 0 0 1 56.365318,48.316708 107.72771,107.62685 0 0 1 -51.362389,-59.310139 107.72771,107.62685 0 0 1 56.365318,-166.93699 107.72771,107.62685 0 0 1 164.09303,-59.310139 Z" /></g><g
         id="g4730"
         transform="matrix(0.93920173,0,0,0.93920173,3.4156596,15.782422)"
         style="font-variation-settings:normal;display:inline;opacity:1;vector-effect:none;fill:url(#radialGradient1330);fill-opacity:1;stroke-width:1;stroke-linecap:butt;stroke-linejoin:miter;stroke-miterlimit:4;stroke-dasharray:none;stroke-dashoffset:0;stroke-opacity:1;-inkscape-stroke:none;stop-color:#000000;stop-opacity:1"><path
           id="path4764"
           style="font-variation-settings:normal;display:inline;opacity:1;fill:url(#radialGradient8298);fill-opacity:1;stroke:#a5a6a5;stroke-width:0;stroke-linecap:butt;stroke-linejoin:miter;stroke-miterlimit:4;stroke-dasharray:none;stroke-dashoffset:0;stroke-opacity:1;stop-color:#000000;stop-opacity:1"
           d="m 342.28711,108.08203 c -15.32255,0.56703 -30.12609,6.2103 -42.88086,14.53516 -4.90259,3.27375 -9.75465,6.70653 -13.94209,10.87847 -1.83557,1.90287 -3.27287,4.13881 -4.93798,6.1856 -10.34823,13.42835 -20.56095,26.96055 -30.85821,40.42812 9.66991,12.9777 19.34101,25.95452 29.01172,38.93164 14.92562,-18.57287 29.42522,-37.48964 44.5761,-55.88173 3.57063,-3.615 8.62552,-5.12029 13.46543,-6.14316 7.27648,-1.44506 14.83249,-2.76225 22.2102,-1.24267 6.5229,1.26465 12.7984,4.69335 16.70505,10.16862 4.60732,6.2318 6.4719,14.06612 6.79043,21.70434 0.1117,2.27823 0.10275,4.81306 -0.0741,7.18995 -0.3813,5.01407 -1.31213,10.11678 -3.85164,14.52584 -2.5324,4.58761 -6.49973,8.42287 -11.33906,10.49912 -7.42204,3.45649 -15.74863,4.13305 -23.82923,4.23492 -4.38942,0.0596 -8.77925,0.001 -13.16882,-0.006 0,-18.53645 0,-37.07291 0,-55.60937 -15.8586,19.81937 -31.71657,39.63925 -47.57226,59.46094 0,4.76237 0,9.52474 0,14.28711 -31.20057,-44.57354 -62.40076,-89.14734 -93.60157,-133.72071 -18.71158,0 -37.42317,0 -56.13476,0 24.81612,35.20806 49.8957,70.23439 74.27036,105.75199 2.67245,3.90063 5.30892,7.82571 7.95229,11.74606 -28.64566,37.8595 -57.29268,75.71798 -85.9375,113.57812 18.92318,0 37.84636,0 56.76954,0 18.97549,-24.54819 37.95471,-49.09353 56.93164,-73.64062 17.12196,24.54672 34.24219,49.09466 51.36523,73.64062 11.98568,0 23.97136,0 35.95703,0 0,-22.26953 0,-44.53906 0,-66.80859 12.5031,0.0936 25.17441,0.19696 37.41552,-2.70857 15.42699,-3.58076 30.08645,-11.11924 41.29008,-22.4055 10.50965,-10.50778 17.40868,-24.42535 19.88169,-39.04611 1.56451,-9.47205 1.61212,-19.16329 0.55106,-28.693 -0.9337,-8.26099 -2.54882,-16.49501 -5.56493,-24.26641 -3.6353,-9.63081 -9.19285,-18.5927 -16.59949,-25.77803 -9.37175,-9.13744 -21.41677,-15.2445 -34.04936,-18.43241 -10.0439,-2.56926 -20.4517,-3.51318 -30.80152,-3.36333 z" /><path
           id="path5628"
           style="font-variation-settings:normal;display:inline;opacity:1;vector-effect:none;fill:#000000;fill-opacity:1;stroke-width:1.09806;stroke-linecap:butt;stroke-linejoin:miter;stroke-miterlimit:4;stroke-dasharray:none;stroke-dashoffset:0;stroke-opacity:1;-inkscape-stroke:none;stop-color:#000000;stop-opacity:1"
           d="m 342.5957,118.08203 c -6.49836,0.24605 -12.93253,1.57111 -19.07226,3.69141 -0.9433,0.32717 -2.13351,0.76274 -3.15921,1.16812 -9.90481,3.95741 -19.04381,9.76151 -27.01462,16.83383 -2.96203,3.08898 -5.28387,6.70798 -7.9769,10.02069 -7.75139,10.11273 -15.45978,20.2462 -23.1813,30.38165 5.58463,7.49414 11.16927,14.98829 16.7539,22.48243 12.36841,-15.54328 24.51764,-31.26263 37.21094,-46.54493 4.83715,-4.86746 11.47236,-7.44248 18.09142,-8.78223 8.5385,-1.79316 17.41703,-3.1014 26.09157,-1.47611 9.47413,1.7027 18.49006,6.92731 23.92892,14.97745 5.4016,7.69963 7.76714,17.15526 8.13946,26.45868 0.36072,8.5721 -0.51738,17.43414 -4.27841,25.25155 -3.84636,7.89629 -10.7227,14.33011 -19.00299,17.34621 -8.355,3.35457 -17.46417,4.15473 -26.39039,4.19903 -7.52375,0.0688 -15.04783,-0.0364 -22.57177,-0.0254 0,-12.35612 0,-24.71224 0,-37.06836 -9.19075,11.48698 -18.38151,22.97396 -27.57226,34.46094 0,14.16667 0,28.33333 0,42.5 -36.26817,-51.81691 -72.53788,-103.63273 -108.80664,-155.44922 -10.53972,0 -21.07943,0 -31.61914,0 25.2774,35.79604 50.75226,71.45616 75.19726,107.83008 -26.03628,34.41698 -52.07718,68.83046 -78.11523,103.24609 10.58659,0 21.17317,0 31.75976,0 20.74781,-26.84198 41.49758,-53.68245 62.24414,-80.52539 18.72522,26.84047 37.4463,53.68382 56.16993,80.52539 6.91406,0 13.82812,0 20.74218,0 0,-22.29231 0,-44.58463 0,-66.87695 8.41363,0.003 16.93507,0.23564 25.28125,-0.0332 7.36721,-0.23423 14.7557,-0.95881 21.89683,-2.85481 13.36334,-3.45775 26.03694,-10.27474 35.54251,-20.37989 5.67351,-5.99408 10.08491,-13.16023 12.89624,-20.91888 3.16538,-8.52601 4.36538,-17.6794 4.21713,-26.74443 -0.0231,-3.36288 -0.2232,-6.72314 -0.56052,-10.06879 -0.0571,-0.46031 -0.15984,-1.40874 -0.21407,-1.88237 -0.70259,-5.52327 -1.73929,-11.02072 -3.36015,-16.352 -0.54114,-1.72822 -1.20661,-3.6303 -1.91511,-5.38363 -3.74235,-9.4045 -9.6379,-18.0607 -17.58216,-24.40714 -8.62386,-7.00125 -19.16104,-11.34815 -29.99783,-13.51441 -5.48259,-1.12828 -11.06367,-1.73928 -16.65334,-1.98193 -1.17692,-0.0463 -2.60647,-0.0908 -3.88202,-0.10355 -1.07907,-0.0124 -2.15804,-0.009 -3.23712,3e-5 z" /><path
           id="path6051"
           style="font-variation-settings:normal;display:inline;opacity:1;vector-effect:none;fill:url(#linearGradient6266);fill-opacity:1;stroke-width:1.09806;stroke-linecap:butt;stroke-linejoin:miter;stroke-miterlimit:4;stroke-dasharray:none;stroke-dashoffset:0;stroke-opacity:1;-inkscape-stroke:none;stop-color:#000000;stop-opacity:1"
           d="m 341.87695,122.12109 c -12.63951,0.70498 -24.73257,5.61921 -35.2326,12.51324 -3.8494,2.5743 -7.62406,5.31536 -10.9511,8.54605 -2.691,2.94169 -4.91145,6.26934 -7.38721,9.38735 -7.04785,9.20375 -14.07754,18.41744 -21.10487,27.63735 3.94728,5.298 7.89515,10.59556 11.84375,15.89258 11.42495,-14.3755 22.66777,-28.90216 34.45825,-42.98199 5.47524,-5.3923 12.89191,-8.31524 20.32633,-9.77936 9.10584,-1.90774 18.59834,-3.13137 27.82237,-1.30202 10.55127,2.03078 20.46358,8.11503 26.36123,17.19434 5.69072,8.46016 8.13521,18.73187 8.41722,28.82831 0.1718,5.38976 -0.15861,10.81546 -1.28384,16.09736 -0.0983,0.416 -0.22464,1.021 -0.36621,1.5724 -1.63689,6.73776 -4.87702,13.129 -9.67684,18.16681 -4.34189,4.6535 -9.84337,8.20299 -15.8737,10.23969 -6.21445,2.28115 -12.81516,3.30894 -19.39965,3.73203 -0.52957,0.0226 -1.50438,0.0826 -2.05923,0.10722 -6.2876,0.23311 -12.58158,0.0898 -18.87201,0.11691 -4.24493,-0.009 -8.48985,-0.0206 -12.73478,-0.0308 0,-9.88476 0,-19.76953 0,-29.65429 -6.52452,8.15329 -13.05015,16.30571 -19.57226,24.46093 0,17.92774 0,35.85547 0,53.78321 -38.29628,-54.71351 -76.59212,-109.42732 -114.88868,-164.14063 -7.27018,0 -14.54036,0 -21.81054,0 24.3678,34.48562 48.8423,68.90329 72.38476,103.96094 -24.99533,33.0385 -49.99156,66.07631 -74.98632,99.11523 7.2526,0 14.5052,0 21.75781,0 21.45358,-27.76092 42.9104,-55.51933 64.36523,-83.27929 19.36479,27.75962 38.72795,55.52038 58.09375,83.27929 4.88542,0 9.77084,0 14.65625,0 0,-22.29622 0,-44.59244 0,-66.88867 12.15968,-0.0733 24.34528,0.50953 36.48291,-0.45669 14.46813,-1.17955 28.76497,-6.19834 40.27465,-15.14362 8.36516,-6.46671 15.03214,-15.1763 18.78737,-25.08219 3.83882,-9.99248 4.79334,-20.87289 4.10049,-31.49161 -0.77914,-11.43273 -3.01825,-23.0048 -8.4755,-33.18722 -4.338,-8.25271 -10.81641,-15.40028 -18.75848,-20.31339 -9.87906,-6.26434 -21.47249,-9.30636 -33.03023,-10.40875 -4.54046,-0.4325 -9.10821,-0.60662 -13.66832,-0.49075 z" /></g></g></g></svg>
